<mxfile host="app.diagrams.net" modified="2024-03-18T08:46:44.309Z" agent="Mozilla/5.0 (Windows NT 10.0; Win64; x64) AppleWebKit/537.36 (KHTML, like Gecko) Chrome/122.0.0.0 Safari/537.36" etag="fiWyFNyC75piqSJvjwIo" version="24.0.7" type="device">
  <diagram name="Trang-1" id="me89cz212xKMBUgfeHej">
    <mxGraphModel dx="2233" dy="1691" grid="1" gridSize="10" guides="1" tooltips="1" connect="1" arrows="1" fold="1" page="1" pageScale="1" pageWidth="827" pageHeight="1169" math="0" shadow="0">
      <root>
        <mxCell id="0" />
        <mxCell id="1" parent="0" />
        <mxCell id="9-XeD08LT8blCO0bY9Uz-1" value="Chi nhánh" style="rounded=0;whiteSpace=wrap;html=1;" vertex="1" parent="1">
          <mxGeometry x="90" y="50" width="120" height="60" as="geometry" />
        </mxCell>
        <mxCell id="9-XeD08LT8blCO0bY9Uz-2" value="Nhân viên" style="rounded=0;whiteSpace=wrap;html=1;" vertex="1" parent="1">
          <mxGeometry x="459" y="70" width="120" height="60" as="geometry" />
        </mxCell>
        <mxCell id="9-XeD08LT8blCO0bY9Uz-4" value="&lt;u&gt;Mã chi nhánh&lt;/u&gt;" style="ellipse;whiteSpace=wrap;html=1;align=center;" vertex="1" parent="1">
          <mxGeometry x="-40" y="-20" width="100" height="40" as="geometry" />
        </mxCell>
        <mxCell id="9-XeD08LT8blCO0bY9Uz-5" value="Địa chỉ" style="ellipse;whiteSpace=wrap;html=1;align=center;" vertex="1" parent="1">
          <mxGeometry x="130" y="-5" width="100" height="40" as="geometry" />
        </mxCell>
        <mxCell id="9-XeD08LT8blCO0bY9Uz-6" value="Đường" style="ellipse;whiteSpace=wrap;html=1;align=center;" vertex="1" parent="1">
          <mxGeometry x="70" y="-40" width="70" height="40" as="geometry" />
        </mxCell>
        <mxCell id="9-XeD08LT8blCO0bY9Uz-7" value="Quận" style="ellipse;whiteSpace=wrap;html=1;align=center;" vertex="1" parent="1">
          <mxGeometry x="130" y="-60" width="70" height="30" as="geometry" />
        </mxCell>
        <mxCell id="9-XeD08LT8blCO0bY9Uz-8" value="Khu vực" style="ellipse;whiteSpace=wrap;html=1;align=center;" vertex="1" parent="1">
          <mxGeometry x="200" y="-60" width="70" height="40" as="geometry" />
        </mxCell>
        <mxCell id="9-XeD08LT8blCO0bY9Uz-9" value="TP" style="ellipse;whiteSpace=wrap;html=1;align=center;" vertex="1" parent="1">
          <mxGeometry x="270" y="-20" width="50" height="30" as="geometry" />
        </mxCell>
        <mxCell id="9-XeD08LT8blCO0bY9Uz-10" value="Số đt" style="ellipse;whiteSpace=wrap;html=1;align=center;" vertex="1" parent="1">
          <mxGeometry x="-40" y="30" width="80" height="40" as="geometry" />
        </mxCell>
        <mxCell id="9-XeD08LT8blCO0bY9Uz-11" value="Số FAX" style="ellipse;whiteSpace=wrap;html=1;align=center;" vertex="1" parent="1">
          <mxGeometry x="-70" y="90" width="100" height="40" as="geometry" />
        </mxCell>
        <mxCell id="9-XeD08LT8blCO0bY9Uz-12" value="" style="endArrow=none;html=1;rounded=0;entryX=0.5;entryY=1;entryDx=0;entryDy=0;exitX=0.25;exitY=0;exitDx=0;exitDy=0;" edge="1" parent="1" source="9-XeD08LT8blCO0bY9Uz-1" target="9-XeD08LT8blCO0bY9Uz-5">
          <mxGeometry relative="1" as="geometry">
            <mxPoint x="240" y="60" as="sourcePoint" />
            <mxPoint x="400" y="60" as="targetPoint" />
          </mxGeometry>
        </mxCell>
        <mxCell id="9-XeD08LT8blCO0bY9Uz-13" value="" style="endArrow=none;html=1;rounded=0;exitX=1;exitY=0.5;exitDx=0;exitDy=0;entryX=0;entryY=0;entryDx=0;entryDy=0;" edge="1" parent="1" source="9-XeD08LT8blCO0bY9Uz-4" target="9-XeD08LT8blCO0bY9Uz-1">
          <mxGeometry relative="1" as="geometry">
            <mxPoint x="240" y="60" as="sourcePoint" />
            <mxPoint x="400" y="60" as="targetPoint" />
          </mxGeometry>
        </mxCell>
        <mxCell id="9-XeD08LT8blCO0bY9Uz-14" value="" style="endArrow=none;html=1;rounded=0;exitX=1;exitY=0.5;exitDx=0;exitDy=0;entryX=0;entryY=0.25;entryDx=0;entryDy=0;" edge="1" parent="1" source="9-XeD08LT8blCO0bY9Uz-10" target="9-XeD08LT8blCO0bY9Uz-1">
          <mxGeometry relative="1" as="geometry">
            <mxPoint x="240" y="60" as="sourcePoint" />
            <mxPoint x="400" y="60" as="targetPoint" />
          </mxGeometry>
        </mxCell>
        <mxCell id="9-XeD08LT8blCO0bY9Uz-15" value="" style="endArrow=none;html=1;rounded=0;exitX=1;exitY=0.5;exitDx=0;exitDy=0;entryX=0;entryY=0.75;entryDx=0;entryDy=0;" edge="1" parent="1" source="9-XeD08LT8blCO0bY9Uz-11" target="9-XeD08LT8blCO0bY9Uz-1">
          <mxGeometry relative="1" as="geometry">
            <mxPoint x="240" y="60" as="sourcePoint" />
            <mxPoint x="400" y="60" as="targetPoint" />
          </mxGeometry>
        </mxCell>
        <mxCell id="9-XeD08LT8blCO0bY9Uz-16" value="" style="endArrow=none;html=1;rounded=0;exitX=1;exitY=0;exitDx=0;exitDy=0;entryX=0;entryY=0.5;entryDx=0;entryDy=0;" edge="1" parent="1" source="9-XeD08LT8blCO0bY9Uz-5" target="9-XeD08LT8blCO0bY9Uz-9">
          <mxGeometry relative="1" as="geometry">
            <mxPoint x="240" y="60" as="sourcePoint" />
            <mxPoint x="400" y="60" as="targetPoint" />
          </mxGeometry>
        </mxCell>
        <mxCell id="9-XeD08LT8blCO0bY9Uz-17" value="" style="endArrow=none;html=1;rounded=0;exitX=0.5;exitY=0;exitDx=0;exitDy=0;entryX=0.5;entryY=1;entryDx=0;entryDy=0;" edge="1" parent="1" source="9-XeD08LT8blCO0bY9Uz-5" target="9-XeD08LT8blCO0bY9Uz-8">
          <mxGeometry relative="1" as="geometry">
            <mxPoint x="240" y="60" as="sourcePoint" />
            <mxPoint x="400" y="60" as="targetPoint" />
          </mxGeometry>
        </mxCell>
        <mxCell id="9-XeD08LT8blCO0bY9Uz-18" value="" style="endArrow=none;html=1;rounded=0;exitX=0.5;exitY=1;exitDx=0;exitDy=0;entryX=0;entryY=0;entryDx=0;entryDy=0;" edge="1" parent="1" source="9-XeD08LT8blCO0bY9Uz-7" target="9-XeD08LT8blCO0bY9Uz-5">
          <mxGeometry relative="1" as="geometry">
            <mxPoint x="240" y="60" as="sourcePoint" />
            <mxPoint x="400" y="60" as="targetPoint" />
          </mxGeometry>
        </mxCell>
        <mxCell id="9-XeD08LT8blCO0bY9Uz-19" value="" style="endArrow=none;html=1;rounded=0;exitX=0.5;exitY=1;exitDx=0;exitDy=0;entryX=0;entryY=0.5;entryDx=0;entryDy=0;" edge="1" parent="1" source="9-XeD08LT8blCO0bY9Uz-6" target="9-XeD08LT8blCO0bY9Uz-5">
          <mxGeometry relative="1" as="geometry">
            <mxPoint x="240" y="60" as="sourcePoint" />
            <mxPoint x="400" y="60" as="targetPoint" />
          </mxGeometry>
        </mxCell>
        <mxCell id="9-XeD08LT8blCO0bY9Uz-20" value="&lt;u&gt;Mã NV&lt;/u&gt;" style="ellipse;whiteSpace=wrap;html=1;align=center;" vertex="1" parent="1">
          <mxGeometry x="649" y="-20" width="80" height="35" as="geometry" />
        </mxCell>
        <mxCell id="9-XeD08LT8blCO0bY9Uz-21" value="Tên" style="ellipse;whiteSpace=wrap;html=1;align=center;" vertex="1" parent="1">
          <mxGeometry x="654" y="25" width="70" height="30" as="geometry" />
        </mxCell>
        <mxCell id="9-XeD08LT8blCO0bY9Uz-22" value="Địa chỉ" style="ellipse;whiteSpace=wrap;html=1;align=center;" vertex="1" parent="1">
          <mxGeometry x="644" y="65" width="80" height="30" as="geometry" />
        </mxCell>
        <mxCell id="9-XeD08LT8blCO0bY9Uz-23" value="Điện thoại" style="ellipse;whiteSpace=wrap;html=1;align=center;" vertex="1" parent="1">
          <mxGeometry x="564" y="-35" width="80" height="30" as="geometry" />
        </mxCell>
        <mxCell id="9-XeD08LT8blCO0bY9Uz-24" value="Giới tính" style="ellipse;whiteSpace=wrap;html=1;align=center;" vertex="1" parent="1">
          <mxGeometry x="644" y="115" width="80" height="30" as="geometry" />
        </mxCell>
        <mxCell id="9-XeD08LT8blCO0bY9Uz-25" value="Ngày sinh" style="ellipse;whiteSpace=wrap;html=1;align=center;" vertex="1" parent="1">
          <mxGeometry x="420" y="-5" width="70" height="40" as="geometry" />
        </mxCell>
        <mxCell id="9-XeD08LT8blCO0bY9Uz-27" value="Lương" style="ellipse;whiteSpace=wrap;html=1;align=center;" vertex="1" parent="1">
          <mxGeometry x="499" y="-5" width="70" height="30" as="geometry" />
        </mxCell>
        <mxCell id="9-XeD08LT8blCO0bY9Uz-29" value="" style="endArrow=none;html=1;rounded=0;exitX=0.5;exitY=1;exitDx=0;exitDy=0;entryX=0;entryY=0;entryDx=0;entryDy=0;" edge="1" parent="1" source="9-XeD08LT8blCO0bY9Uz-25" target="9-XeD08LT8blCO0bY9Uz-2">
          <mxGeometry relative="1" as="geometry">
            <mxPoint x="384" y="55" as="sourcePoint" />
            <mxPoint x="544" y="55" as="targetPoint" />
          </mxGeometry>
        </mxCell>
        <mxCell id="9-XeD08LT8blCO0bY9Uz-30" value="" style="endArrow=none;html=1;rounded=0;exitX=0.5;exitY=1;exitDx=0;exitDy=0;entryX=0.25;entryY=0;entryDx=0;entryDy=0;" edge="1" parent="1" source="9-XeD08LT8blCO0bY9Uz-27" target="9-XeD08LT8blCO0bY9Uz-2">
          <mxGeometry relative="1" as="geometry">
            <mxPoint x="384" y="55" as="sourcePoint" />
            <mxPoint x="544" y="55" as="targetPoint" />
          </mxGeometry>
        </mxCell>
        <mxCell id="9-XeD08LT8blCO0bY9Uz-31" value="" style="endArrow=none;html=1;rounded=0;exitX=0.5;exitY=1;exitDx=0;exitDy=0;entryX=0.5;entryY=0;entryDx=0;entryDy=0;" edge="1" parent="1" source="9-XeD08LT8blCO0bY9Uz-23" target="9-XeD08LT8blCO0bY9Uz-2">
          <mxGeometry relative="1" as="geometry">
            <mxPoint x="384" y="55" as="sourcePoint" />
            <mxPoint x="544" y="55" as="targetPoint" />
          </mxGeometry>
        </mxCell>
        <mxCell id="9-XeD08LT8blCO0bY9Uz-32" value="" style="endArrow=none;html=1;rounded=0;entryX=0.04;entryY=0.717;entryDx=0;entryDy=0;entryPerimeter=0;exitX=0.75;exitY=0;exitDx=0;exitDy=0;" edge="1" parent="1" source="9-XeD08LT8blCO0bY9Uz-2" target="9-XeD08LT8blCO0bY9Uz-20">
          <mxGeometry relative="1" as="geometry">
            <mxPoint x="384" y="55" as="sourcePoint" />
            <mxPoint x="544" y="55" as="targetPoint" />
          </mxGeometry>
        </mxCell>
        <mxCell id="9-XeD08LT8blCO0bY9Uz-33" value="" style="endArrow=none;html=1;rounded=0;entryX=0;entryY=0.5;entryDx=0;entryDy=0;exitX=1;exitY=0.25;exitDx=0;exitDy=0;" edge="1" parent="1" source="9-XeD08LT8blCO0bY9Uz-2" target="9-XeD08LT8blCO0bY9Uz-21">
          <mxGeometry relative="1" as="geometry">
            <mxPoint x="544" y="55" as="sourcePoint" />
            <mxPoint x="704" y="55" as="targetPoint" />
          </mxGeometry>
        </mxCell>
        <mxCell id="9-XeD08LT8blCO0bY9Uz-34" value="" style="endArrow=none;html=1;rounded=0;entryX=0;entryY=0.5;entryDx=0;entryDy=0;exitX=1;exitY=0.5;exitDx=0;exitDy=0;" edge="1" parent="1" source="9-XeD08LT8blCO0bY9Uz-2" target="9-XeD08LT8blCO0bY9Uz-22">
          <mxGeometry relative="1" as="geometry">
            <mxPoint x="544" y="55" as="sourcePoint" />
            <mxPoint x="704" y="55" as="targetPoint" />
          </mxGeometry>
        </mxCell>
        <mxCell id="9-XeD08LT8blCO0bY9Uz-35" value="" style="endArrow=none;html=1;rounded=0;entryX=0;entryY=0.5;entryDx=0;entryDy=0;exitX=1;exitY=1;exitDx=0;exitDy=0;" edge="1" parent="1" source="9-XeD08LT8blCO0bY9Uz-2" target="9-XeD08LT8blCO0bY9Uz-24">
          <mxGeometry relative="1" as="geometry">
            <mxPoint x="544" y="55" as="sourcePoint" />
            <mxPoint x="704" y="55" as="targetPoint" />
          </mxGeometry>
        </mxCell>
        <mxCell id="9-XeD08LT8blCO0bY9Uz-36" value="Làm việc" style="shape=rhombus;perimeter=rhombusPerimeter;whiteSpace=wrap;html=1;align=center;" vertex="1" parent="1">
          <mxGeometry x="294" y="30" width="120" height="60" as="geometry" />
        </mxCell>
        <mxCell id="9-XeD08LT8blCO0bY9Uz-37" value="(1,1)" style="endArrow=none;html=1;rounded=0;entryX=0;entryY=0.5;entryDx=0;entryDy=0;exitX=1;exitY=0.5;exitDx=0;exitDy=0;" edge="1" parent="1" source="9-XeD08LT8blCO0bY9Uz-36" target="9-XeD08LT8blCO0bY9Uz-2">
          <mxGeometry relative="1" as="geometry">
            <mxPoint x="434" y="65" as="sourcePoint" />
            <mxPoint x="514" y="55" as="targetPoint" />
          </mxGeometry>
        </mxCell>
        <mxCell id="9-XeD08LT8blCO0bY9Uz-38" value="(1,n)" style="endArrow=none;html=1;rounded=0;exitX=1;exitY=0.5;exitDx=0;exitDy=0;entryX=0;entryY=0.5;entryDx=0;entryDy=0;" edge="1" parent="1" source="9-XeD08LT8blCO0bY9Uz-1" target="9-XeD08LT8blCO0bY9Uz-36">
          <mxGeometry relative="1" as="geometry">
            <mxPoint x="300" y="60" as="sourcePoint" />
            <mxPoint x="460" y="60" as="targetPoint" />
          </mxGeometry>
        </mxCell>
        <mxCell id="9-XeD08LT8blCO0bY9Uz-39" value="Nhà" style="whiteSpace=wrap;html=1;align=center;" vertex="1" parent="1">
          <mxGeometry x="469" y="260" width="100" height="40" as="geometry" />
        </mxCell>
        <mxCell id="9-XeD08LT8blCO0bY9Uz-40" value="Mã số nhà" style="ellipse;whiteSpace=wrap;html=1;align=center;fontStyle=4;" vertex="1" parent="1">
          <mxGeometry x="610" y="209" width="100" height="40" as="geometry" />
        </mxCell>
        <mxCell id="9-XeD08LT8blCO0bY9Uz-41" value="Thông tin định vị" style="ellipse;whiteSpace=wrap;html=1;align=center;" vertex="1" parent="1">
          <mxGeometry x="600" y="274" width="100" height="40" as="geometry" />
        </mxCell>
        <mxCell id="9-XeD08LT8blCO0bY9Uz-42" value="Đường" style="ellipse;whiteSpace=wrap;html=1;align=center;" vertex="1" parent="1">
          <mxGeometry x="730" y="210" width="80" height="30" as="geometry" />
        </mxCell>
        <mxCell id="9-XeD08LT8blCO0bY9Uz-43" value="Quận" style="ellipse;whiteSpace=wrap;html=1;align=center;" vertex="1" parent="1">
          <mxGeometry x="771" y="239" width="70" height="30" as="geometry" />
        </mxCell>
        <mxCell id="9-XeD08LT8blCO0bY9Uz-44" value="Thành phố" style="ellipse;whiteSpace=wrap;html=1;align=center;" vertex="1" parent="1">
          <mxGeometry x="761" y="279" width="80" height="30" as="geometry" />
        </mxCell>
        <mxCell id="9-XeD08LT8blCO0bY9Uz-45" value="Khu vực" style="ellipse;whiteSpace=wrap;html=1;align=center;" vertex="1" parent="1">
          <mxGeometry x="766" y="329" width="80" height="40" as="geometry" />
        </mxCell>
        <mxCell id="9-XeD08LT8blCO0bY9Uz-46" style="edgeStyle=orthogonalEdgeStyle;rounded=0;orthogonalLoop=1;jettySize=auto;html=1;exitX=0.5;exitY=1;exitDx=0;exitDy=0;" edge="1" parent="1" source="9-XeD08LT8blCO0bY9Uz-45" target="9-XeD08LT8blCO0bY9Uz-45">
          <mxGeometry relative="1" as="geometry" />
        </mxCell>
        <mxCell id="9-XeD08LT8blCO0bY9Uz-47" value="" style="endArrow=none;html=1;rounded=0;exitX=0.75;exitY=0;exitDx=0;exitDy=0;entryX=0;entryY=0.5;entryDx=0;entryDy=0;" edge="1" parent="1" source="9-XeD08LT8blCO0bY9Uz-39" target="9-XeD08LT8blCO0bY9Uz-40">
          <mxGeometry relative="1" as="geometry">
            <mxPoint x="630" y="290" as="sourcePoint" />
            <mxPoint x="790" y="290" as="targetPoint" />
          </mxGeometry>
        </mxCell>
        <mxCell id="9-XeD08LT8blCO0bY9Uz-49" value="" style="endArrow=none;html=1;rounded=0;entryX=0;entryY=0.5;entryDx=0;entryDy=0;exitX=0.5;exitY=0;exitDx=0;exitDy=0;" edge="1" parent="1" source="9-XeD08LT8blCO0bY9Uz-41" target="9-XeD08LT8blCO0bY9Uz-42">
          <mxGeometry relative="1" as="geometry">
            <mxPoint x="596" y="289" as="sourcePoint" />
            <mxPoint x="756" y="289" as="targetPoint" />
          </mxGeometry>
        </mxCell>
        <mxCell id="9-XeD08LT8blCO0bY9Uz-50" value="" style="endArrow=none;html=1;rounded=0;entryX=0;entryY=0.5;entryDx=0;entryDy=0;exitX=1;exitY=0;exitDx=0;exitDy=0;" edge="1" parent="1" source="9-XeD08LT8blCO0bY9Uz-41" target="9-XeD08LT8blCO0bY9Uz-43">
          <mxGeometry relative="1" as="geometry">
            <mxPoint x="596" y="289" as="sourcePoint" />
            <mxPoint x="756" y="289" as="targetPoint" />
          </mxGeometry>
        </mxCell>
        <mxCell id="9-XeD08LT8blCO0bY9Uz-51" value="" style="endArrow=none;html=1;rounded=0;entryX=0;entryY=0.5;entryDx=0;entryDy=0;exitX=1;exitY=0.5;exitDx=0;exitDy=0;" edge="1" parent="1" source="9-XeD08LT8blCO0bY9Uz-41" target="9-XeD08LT8blCO0bY9Uz-44">
          <mxGeometry relative="1" as="geometry">
            <mxPoint x="596" y="289" as="sourcePoint" />
            <mxPoint x="746" y="309" as="targetPoint" />
          </mxGeometry>
        </mxCell>
        <mxCell id="9-XeD08LT8blCO0bY9Uz-52" value="" style="endArrow=none;html=1;rounded=0;entryX=0;entryY=0.5;entryDx=0;entryDy=0;exitX=1;exitY=1;exitDx=0;exitDy=0;" edge="1" parent="1" source="9-XeD08LT8blCO0bY9Uz-41" target="9-XeD08LT8blCO0bY9Uz-45">
          <mxGeometry relative="1" as="geometry">
            <mxPoint x="596" y="289" as="sourcePoint" />
            <mxPoint x="756" y="289" as="targetPoint" />
          </mxGeometry>
        </mxCell>
        <mxCell id="9-XeD08LT8blCO0bY9Uz-53" value="" style="endArrow=none;html=1;rounded=0;exitX=1;exitY=0.5;exitDx=0;exitDy=0;entryX=0;entryY=0.5;entryDx=0;entryDy=0;" edge="1" parent="1" source="9-XeD08LT8blCO0bY9Uz-39" target="9-XeD08LT8blCO0bY9Uz-41">
          <mxGeometry relative="1" as="geometry">
            <mxPoint x="630" y="290" as="sourcePoint" />
            <mxPoint x="790" y="290" as="targetPoint" />
          </mxGeometry>
        </mxCell>
        <mxCell id="9-XeD08LT8blCO0bY9Uz-56" value="SL phòng ở" style="ellipse;whiteSpace=wrap;html=1;align=center;" vertex="1" parent="1">
          <mxGeometry x="654" y="354.5" width="100" height="40" as="geometry" />
        </mxCell>
        <mxCell id="9-XeD08LT8blCO0bY9Uz-57" value="Tiền thuê" style="ellipse;whiteSpace=wrap;html=1;align=center;" vertex="1" parent="1">
          <mxGeometry x="554" y="359" width="100" height="40" as="geometry" />
        </mxCell>
        <mxCell id="9-XeD08LT8blCO0bY9Uz-58" value="" style="endArrow=none;html=1;rounded=0;exitX=1;exitY=1;exitDx=0;exitDy=0;entryX=0.5;entryY=0;entryDx=0;entryDy=0;" edge="1" parent="1" source="9-XeD08LT8blCO0bY9Uz-39" target="9-XeD08LT8blCO0bY9Uz-56">
          <mxGeometry relative="1" as="geometry">
            <mxPoint x="630" y="290" as="sourcePoint" />
            <mxPoint x="790" y="290" as="targetPoint" />
          </mxGeometry>
        </mxCell>
        <mxCell id="9-XeD08LT8blCO0bY9Uz-59" value="" style="endArrow=none;html=1;rounded=0;exitX=0.5;exitY=1;exitDx=0;exitDy=0;entryX=0.5;entryY=0;entryDx=0;entryDy=0;" edge="1" parent="1" source="9-XeD08LT8blCO0bY9Uz-39" target="9-XeD08LT8blCO0bY9Uz-57">
          <mxGeometry relative="1" as="geometry">
            <mxPoint x="630" y="290" as="sourcePoint" />
            <mxPoint x="790" y="290" as="targetPoint" />
          </mxGeometry>
        </mxCell>
        <mxCell id="9-XeD08LT8blCO0bY9Uz-60" value="Phụ trách" style="shape=rhombus;perimeter=rhombusPerimeter;whiteSpace=wrap;html=1;align=center;" vertex="1" parent="1">
          <mxGeometry x="524" y="150" width="120" height="60" as="geometry" />
        </mxCell>
        <mxCell id="9-XeD08LT8blCO0bY9Uz-61" value="" style="endArrow=none;html=1;rounded=0;exitX=0.5;exitY=1;exitDx=0;exitDy=0;entryX=0.5;entryY=0;entryDx=0;entryDy=0;" edge="1" parent="1" source="9-XeD08LT8blCO0bY9Uz-2" target="9-XeD08LT8blCO0bY9Uz-60">
          <mxGeometry relative="1" as="geometry">
            <mxPoint x="630" y="200" as="sourcePoint" />
            <mxPoint x="790" y="200" as="targetPoint" />
          </mxGeometry>
        </mxCell>
        <mxCell id="9-XeD08LT8blCO0bY9Uz-62" value="" style="endArrow=none;html=1;rounded=0;exitX=0.5;exitY=1;exitDx=0;exitDy=0;entryX=0.5;entryY=0;entryDx=0;entryDy=0;" edge="1" parent="1" source="9-XeD08LT8blCO0bY9Uz-60" target="9-XeD08LT8blCO0bY9Uz-39">
          <mxGeometry relative="1" as="geometry">
            <mxPoint x="630" y="200" as="sourcePoint" />
            <mxPoint x="790" y="200" as="targetPoint" />
          </mxGeometry>
        </mxCell>
        <mxCell id="9-XeD08LT8blCO0bY9Uz-64" value="Thuộc" style="shape=rhombus;perimeter=rhombusPerimeter;whiteSpace=wrap;html=1;align=center;" vertex="1" parent="1">
          <mxGeometry x="190" y="145" width="110" height="50" as="geometry" />
        </mxCell>
        <mxCell id="9-XeD08LT8blCO0bY9Uz-65" value="" style="endArrow=none;html=1;rounded=0;entryX=0;entryY=0.5;entryDx=0;entryDy=0;exitX=1;exitY=0.5;exitDx=0;exitDy=0;" edge="1" parent="1" source="9-XeD08LT8blCO0bY9Uz-64" target="9-XeD08LT8blCO0bY9Uz-39">
          <mxGeometry relative="1" as="geometry">
            <mxPoint x="220" y="210" as="sourcePoint" />
            <mxPoint x="380" y="210" as="targetPoint" />
          </mxGeometry>
        </mxCell>
        <mxCell id="9-XeD08LT8blCO0bY9Uz-66" value="" style="endArrow=none;html=1;rounded=0;exitX=0.5;exitY=1;exitDx=0;exitDy=0;entryX=0;entryY=0.5;entryDx=0;entryDy=0;" edge="1" parent="1" source="9-XeD08LT8blCO0bY9Uz-1" target="9-XeD08LT8blCO0bY9Uz-64">
          <mxGeometry relative="1" as="geometry">
            <mxPoint x="220" y="210" as="sourcePoint" />
            <mxPoint x="380" y="210" as="targetPoint" />
          </mxGeometry>
        </mxCell>
        <mxCell id="9-XeD08LT8blCO0bY9Uz-67" value="Thông tin" style="ellipse;whiteSpace=wrap;html=1;align=center;" vertex="1" parent="1">
          <mxGeometry x="240" y="80" width="80" height="30" as="geometry" />
        </mxCell>
        <mxCell id="9-XeD08LT8blCO0bY9Uz-68" value="" style="endArrow=none;html=1;rounded=0;entryX=0.5;entryY=1;entryDx=0;entryDy=0;exitX=0.5;exitY=0;exitDx=0;exitDy=0;" edge="1" parent="1" source="9-XeD08LT8blCO0bY9Uz-64" target="9-XeD08LT8blCO0bY9Uz-67">
          <mxGeometry relative="1" as="geometry">
            <mxPoint x="220" y="210" as="sourcePoint" />
            <mxPoint x="380" y="210" as="targetPoint" />
          </mxGeometry>
        </mxCell>
        <mxCell id="9-XeD08LT8blCO0bY9Uz-69" value="Chủ nhà" style="whiteSpace=wrap;html=1;align=center;" vertex="1" parent="1">
          <mxGeometry x="420" y="420" width="100" height="40" as="geometry" />
        </mxCell>
        <mxCell id="9-XeD08LT8blCO0bY9Uz-70" value="Mã" style="ellipse;whiteSpace=wrap;html=1;align=center;fontStyle=4;" vertex="1" parent="1">
          <mxGeometry x="340" y="500" width="80" height="30" as="geometry" />
        </mxCell>
        <mxCell id="9-XeD08LT8blCO0bY9Uz-71" value="Địa chỉ" style="ellipse;whiteSpace=wrap;html=1;align=center;" vertex="1" parent="1">
          <mxGeometry x="430" y="480" width="90" height="40" as="geometry" />
        </mxCell>
        <mxCell id="9-XeD08LT8blCO0bY9Uz-72" value="Điện thoại" style="ellipse;whiteSpace=wrap;html=1;align=center;" vertex="1" parent="1">
          <mxGeometry x="520" y="480" width="90" height="30" as="geometry" />
        </mxCell>
        <mxCell id="9-XeD08LT8blCO0bY9Uz-73" value="" style="endArrow=none;html=1;rounded=0;exitX=0.5;exitY=0;exitDx=0;exitDy=0;entryX=0.25;entryY=1;entryDx=0;entryDy=0;" edge="1" parent="1" source="9-XeD08LT8blCO0bY9Uz-70" target="9-XeD08LT8blCO0bY9Uz-69">
          <mxGeometry relative="1" as="geometry">
            <mxPoint x="380" y="471" as="sourcePoint" />
            <mxPoint x="540" y="471" as="targetPoint" />
          </mxGeometry>
        </mxCell>
        <mxCell id="9-XeD08LT8blCO0bY9Uz-74" value="" style="endArrow=none;html=1;rounded=0;entryX=0.5;entryY=1;entryDx=0;entryDy=0;exitX=0.5;exitY=0;exitDx=0;exitDy=0;" edge="1" parent="1" source="9-XeD08LT8blCO0bY9Uz-71" target="9-XeD08LT8blCO0bY9Uz-69">
          <mxGeometry relative="1" as="geometry">
            <mxPoint x="380" y="471" as="sourcePoint" />
            <mxPoint x="540" y="471" as="targetPoint" />
          </mxGeometry>
        </mxCell>
        <mxCell id="9-XeD08LT8blCO0bY9Uz-75" value="" style="endArrow=none;html=1;rounded=0;entryX=0.5;entryY=0;entryDx=0;entryDy=0;exitX=0.75;exitY=1;exitDx=0;exitDy=0;" edge="1" parent="1" source="9-XeD08LT8blCO0bY9Uz-69" target="9-XeD08LT8blCO0bY9Uz-72">
          <mxGeometry relative="1" as="geometry">
            <mxPoint x="380" y="471" as="sourcePoint" />
            <mxPoint x="540" y="471" as="targetPoint" />
          </mxGeometry>
        </mxCell>
        <mxCell id="9-XeD08LT8blCO0bY9Uz-76" value="Tên" style="ellipse;whiteSpace=wrap;html=1;align=center;" vertex="1" parent="1">
          <mxGeometry x="320" y="440" width="80" height="30" as="geometry" />
        </mxCell>
        <mxCell id="9-XeD08LT8blCO0bY9Uz-77" value="" style="endArrow=none;html=1;rounded=0;exitX=1;exitY=0.5;exitDx=0;exitDy=0;entryX=0;entryY=1;entryDx=0;entryDy=0;" edge="1" parent="1" source="9-XeD08LT8blCO0bY9Uz-76" target="9-XeD08LT8blCO0bY9Uz-69">
          <mxGeometry relative="1" as="geometry">
            <mxPoint x="380" y="471" as="sourcePoint" />
            <mxPoint x="540" y="471" as="targetPoint" />
          </mxGeometry>
        </mxCell>
        <mxCell id="9-XeD08LT8blCO0bY9Uz-83" value="Loại nhà" style="whiteSpace=wrap;html=1;align=center;" vertex="1" parent="1">
          <mxGeometry x="210" y="369" width="100" height="40" as="geometry" />
        </mxCell>
        <mxCell id="9-XeD08LT8blCO0bY9Uz-84" value="Mã loại nhà" style="ellipse;whiteSpace=wrap;html=1;align=center;fontStyle=4;" vertex="1" parent="1">
          <mxGeometry x="150" y="440" width="100" height="40" as="geometry" />
        </mxCell>
        <mxCell id="9-XeD08LT8blCO0bY9Uz-85" value="Tên" style="ellipse;whiteSpace=wrap;html=1;align=center;" vertex="1" parent="1">
          <mxGeometry x="90" y="410" width="60" height="30" as="geometry" />
        </mxCell>
        <mxCell id="9-XeD08LT8blCO0bY9Uz-86" value="" style="endArrow=none;html=1;rounded=0;exitX=1;exitY=0.5;exitDx=0;exitDy=0;entryX=0;entryY=0.5;entryDx=0;entryDy=0;" edge="1" parent="1" source="9-XeD08LT8blCO0bY9Uz-85" target="9-XeD08LT8blCO0bY9Uz-83">
          <mxGeometry relative="1" as="geometry">
            <mxPoint x="190" y="340" as="sourcePoint" />
            <mxPoint x="350" y="340" as="targetPoint" />
          </mxGeometry>
        </mxCell>
        <mxCell id="9-XeD08LT8blCO0bY9Uz-87" value="" style="endArrow=none;html=1;rounded=0;exitX=0.5;exitY=0;exitDx=0;exitDy=0;entryX=0.25;entryY=1;entryDx=0;entryDy=0;" edge="1" parent="1" source="9-XeD08LT8blCO0bY9Uz-84" target="9-XeD08LT8blCO0bY9Uz-83">
          <mxGeometry relative="1" as="geometry">
            <mxPoint x="190" y="340" as="sourcePoint" />
            <mxPoint x="350" y="340" as="targetPoint" />
          </mxGeometry>
        </mxCell>
        <mxCell id="9-XeD08LT8blCO0bY9Uz-88" value="Thuộc" style="shape=rhombus;perimeter=rhombusPerimeter;whiteSpace=wrap;html=1;align=center;" vertex="1" parent="1">
          <mxGeometry x="350" y="354" width="90" height="50" as="geometry" />
        </mxCell>
        <mxCell id="9-XeD08LT8blCO0bY9Uz-89" value="(1,1)" style="endArrow=none;html=1;rounded=0;entryX=0;entryY=1;entryDx=0;entryDy=0;exitX=1;exitY=0.5;exitDx=0;exitDy=0;" edge="1" parent="1" source="9-XeD08LT8blCO0bY9Uz-88" target="9-XeD08LT8blCO0bY9Uz-39">
          <mxGeometry relative="1" as="geometry">
            <mxPoint x="190" y="340" as="sourcePoint" />
            <mxPoint x="350" y="340" as="targetPoint" />
          </mxGeometry>
        </mxCell>
        <mxCell id="9-XeD08LT8blCO0bY9Uz-90" value="(1,n)" style="endArrow=none;html=1;rounded=0;entryX=0;entryY=0.5;entryDx=0;entryDy=0;exitX=1;exitY=0.5;exitDx=0;exitDy=0;" edge="1" parent="1" source="9-XeD08LT8blCO0bY9Uz-83" target="9-XeD08LT8blCO0bY9Uz-88">
          <mxGeometry relative="1" as="geometry">
            <mxPoint x="190" y="340" as="sourcePoint" />
            <mxPoint x="350" y="340" as="targetPoint" />
          </mxGeometry>
        </mxCell>
        <mxCell id="9-XeD08LT8blCO0bY9Uz-91" value="Người thuê" style="whiteSpace=wrap;html=1;align=center;" vertex="1" parent="1">
          <mxGeometry x="40" y="274" width="100" height="40" as="geometry" />
        </mxCell>
        <mxCell id="9-XeD08LT8blCO0bY9Uz-93" value="Mã người thuê" style="ellipse;whiteSpace=wrap;html=1;align=center;fontStyle=4;" vertex="1" parent="1">
          <mxGeometry x="-30" y="210" width="100" height="40" as="geometry" />
        </mxCell>
        <mxCell id="9-XeD08LT8blCO0bY9Uz-95" value="Thông tin liên lạc" style="ellipse;whiteSpace=wrap;html=1;align=center;" vertex="1" parent="1">
          <mxGeometry x="-80" y="279" width="100" height="40" as="geometry" />
        </mxCell>
        <mxCell id="9-XeD08LT8blCO0bY9Uz-96" value="Tên" style="ellipse;whiteSpace=wrap;html=1;align=center;" vertex="1" parent="1">
          <mxGeometry x="-140" y="250" width="70" height="30" as="geometry" />
        </mxCell>
        <mxCell id="9-XeD08LT8blCO0bY9Uz-97" value="Địa chỉ" style="ellipse;whiteSpace=wrap;html=1;align=center;" vertex="1" parent="1">
          <mxGeometry x="-160" y="304" width="80" height="30" as="geometry" />
        </mxCell>
        <mxCell id="9-XeD08LT8blCO0bY9Uz-98" value="Điện thoại" style="ellipse;whiteSpace=wrap;html=1;align=center;" vertex="1" parent="1">
          <mxGeometry x="-105" y="357" width="75" height="30" as="geometry" />
        </mxCell>
        <mxCell id="9-XeD08LT8blCO0bY9Uz-99" value="Của" style="shape=rhombus;perimeter=rhombusPerimeter;whiteSpace=wrap;html=1;align=center;" vertex="1" parent="1">
          <mxGeometry x="450" y="345.5" width="86" height="49" as="geometry" />
        </mxCell>
        <mxCell id="9-XeD08LT8blCO0bY9Uz-100" value="" style="endArrow=none;html=1;rounded=0;entryX=0.25;entryY=1;entryDx=0;entryDy=0;exitX=0.5;exitY=0;exitDx=0;exitDy=0;" edge="1" parent="1" source="9-XeD08LT8blCO0bY9Uz-99" target="9-XeD08LT8blCO0bY9Uz-39">
          <mxGeometry relative="1" as="geometry">
            <mxPoint x="440" y="330" as="sourcePoint" />
            <mxPoint x="340" y="380" as="targetPoint" />
          </mxGeometry>
        </mxCell>
        <mxCell id="9-XeD08LT8blCO0bY9Uz-101" value="" style="endArrow=none;html=1;rounded=0;entryX=0.5;entryY=1;entryDx=0;entryDy=0;exitX=0.5;exitY=0;exitDx=0;exitDy=0;" edge="1" parent="1" source="9-XeD08LT8blCO0bY9Uz-69" target="9-XeD08LT8blCO0bY9Uz-99">
          <mxGeometry relative="1" as="geometry">
            <mxPoint x="180" y="380" as="sourcePoint" />
            <mxPoint x="340" y="380" as="targetPoint" />
          </mxGeometry>
        </mxCell>
        <mxCell id="9-XeD08LT8blCO0bY9Uz-102" value="" style="endArrow=none;html=1;rounded=0;entryX=0;entryY=0.5;entryDx=0;entryDy=0;exitX=1;exitY=0.5;exitDx=0;exitDy=0;" edge="1" parent="1" source="9-XeD08LT8blCO0bY9Uz-95" target="9-XeD08LT8blCO0bY9Uz-91">
          <mxGeometry relative="1" as="geometry">
            <mxPoint x="-20" y="280" as="sourcePoint" />
            <mxPoint x="140" y="280" as="targetPoint" />
          </mxGeometry>
        </mxCell>
        <mxCell id="9-XeD08LT8blCO0bY9Uz-103" value="" style="endArrow=none;html=1;rounded=0;exitX=1;exitY=0.5;exitDx=0;exitDy=0;entryX=0;entryY=0;entryDx=0;entryDy=0;" edge="1" parent="1" source="9-XeD08LT8blCO0bY9Uz-96" target="9-XeD08LT8blCO0bY9Uz-95">
          <mxGeometry relative="1" as="geometry">
            <mxPoint x="-20" y="280" as="sourcePoint" />
            <mxPoint x="140" y="280" as="targetPoint" />
          </mxGeometry>
        </mxCell>
        <mxCell id="9-XeD08LT8blCO0bY9Uz-104" value="" style="endArrow=none;html=1;rounded=0;exitX=1;exitY=0.5;exitDx=0;exitDy=0;entryX=0;entryY=0.5;entryDx=0;entryDy=0;" edge="1" parent="1" source="9-XeD08LT8blCO0bY9Uz-97" target="9-XeD08LT8blCO0bY9Uz-95">
          <mxGeometry relative="1" as="geometry">
            <mxPoint x="-20" y="280" as="sourcePoint" />
            <mxPoint x="140" y="280" as="targetPoint" />
          </mxGeometry>
        </mxCell>
        <mxCell id="9-XeD08LT8blCO0bY9Uz-105" value="" style="endArrow=none;html=1;rounded=0;exitX=1;exitY=0.5;exitDx=0;exitDy=0;entryX=0;entryY=1;entryDx=0;entryDy=0;" edge="1" parent="1" source="9-XeD08LT8blCO0bY9Uz-98" target="9-XeD08LT8blCO0bY9Uz-95">
          <mxGeometry relative="1" as="geometry">
            <mxPoint x="-20" y="280" as="sourcePoint" />
            <mxPoint x="140" y="280" as="targetPoint" />
          </mxGeometry>
        </mxCell>
        <mxCell id="9-XeD08LT8blCO0bY9Uz-106" value="" style="endArrow=none;html=1;rounded=0;exitX=0.5;exitY=1;exitDx=0;exitDy=0;entryX=0;entryY=0;entryDx=0;entryDy=0;" edge="1" parent="1" source="9-XeD08LT8blCO0bY9Uz-93" target="9-XeD08LT8blCO0bY9Uz-91">
          <mxGeometry relative="1" as="geometry">
            <mxPoint x="-104.64466094067893" y="262.14213562372856" as="sourcePoint" />
            <mxPoint x="90" y="279" as="targetPoint" />
          </mxGeometry>
        </mxCell>
        <mxCell id="9-XeD08LT8blCO0bY9Uz-107" value="Quản lí" style="shape=rhombus;perimeter=rhombusPerimeter;whiteSpace=wrap;html=1;align=center;" vertex="1" parent="1">
          <mxGeometry x="70" y="150" width="90" height="40" as="geometry" />
        </mxCell>
        <mxCell id="9-XeD08LT8blCO0bY9Uz-108" value="" style="endArrow=none;html=1;rounded=0;exitX=0.5;exitY=0;exitDx=0;exitDy=0;entryX=0.25;entryY=1;entryDx=0;entryDy=0;" edge="1" parent="1" source="9-XeD08LT8blCO0bY9Uz-107" target="9-XeD08LT8blCO0bY9Uz-1">
          <mxGeometry relative="1" as="geometry">
            <mxPoint x="70" y="210" as="sourcePoint" />
            <mxPoint x="230" y="210" as="targetPoint" />
          </mxGeometry>
        </mxCell>
        <mxCell id="9-XeD08LT8blCO0bY9Uz-109" value="" style="endArrow=none;html=1;rounded=0;exitX=0.5;exitY=0;exitDx=0;exitDy=0;entryX=0.5;entryY=1;entryDx=0;entryDy=0;" edge="1" parent="1" source="9-XeD08LT8blCO0bY9Uz-91" target="9-XeD08LT8blCO0bY9Uz-107">
          <mxGeometry relative="1" as="geometry">
            <mxPoint x="70" y="210" as="sourcePoint" />
            <mxPoint x="230" y="210" as="targetPoint" />
          </mxGeometry>
        </mxCell>
        <mxCell id="9-XeD08LT8blCO0bY9Uz-110" value="Thông tin" style="shape=rhombus;perimeter=rhombusPerimeter;whiteSpace=wrap;html=1;align=center;" vertex="1" parent="1">
          <mxGeometry x="100" y="336" width="90" height="44" as="geometry" />
        </mxCell>
        <mxCell id="9-XeD08LT8blCO0bY9Uz-111" value="" style="endArrow=none;html=1;rounded=0;exitX=0.75;exitY=1;exitDx=0;exitDy=0;entryX=0;entryY=0.5;entryDx=0;entryDy=0;" edge="1" parent="1" source="9-XeD08LT8blCO0bY9Uz-91" target="9-XeD08LT8blCO0bY9Uz-110">
          <mxGeometry relative="1" as="geometry">
            <mxPoint x="70" y="430" as="sourcePoint" />
            <mxPoint x="230" y="430" as="targetPoint" />
          </mxGeometry>
        </mxCell>
        <mxCell id="9-XeD08LT8blCO0bY9Uz-112" value="" style="endArrow=none;html=1;rounded=0;entryX=0;entryY=0.25;entryDx=0;entryDy=0;exitX=1;exitY=0.5;exitDx=0;exitDy=0;" edge="1" parent="1" source="9-XeD08LT8blCO0bY9Uz-110" target="9-XeD08LT8blCO0bY9Uz-83">
          <mxGeometry relative="1" as="geometry">
            <mxPoint x="70" y="430" as="sourcePoint" />
            <mxPoint x="230" y="430" as="targetPoint" />
          </mxGeometry>
        </mxCell>
        <mxCell id="9-XeD08LT8blCO0bY9Uz-113" value="Khả năng thuê" style="ellipse;whiteSpace=wrap;html=1;align=center;" vertex="1" parent="1">
          <mxGeometry x="-25" y="387" width="100" height="40" as="geometry" />
        </mxCell>
        <mxCell id="9-XeD08LT8blCO0bY9Uz-114" value="" style="endArrow=none;html=1;rounded=0;exitX=1;exitY=0.5;exitDx=0;exitDy=0;entryX=0;entryY=1;entryDx=0;entryDy=0;" edge="1" parent="1" source="9-XeD08LT8blCO0bY9Uz-113" target="9-XeD08LT8blCO0bY9Uz-110">
          <mxGeometry relative="1" as="geometry">
            <mxPoint x="70" y="430" as="sourcePoint" />
            <mxPoint x="230" y="430" as="targetPoint" />
          </mxGeometry>
        </mxCell>
        <mxCell id="9-XeD08LT8blCO0bY9Uz-115" value="Thông báo&amp;nbsp;&lt;div&gt;xem nhà&lt;/div&gt;" style="shape=rhombus;perimeter=rhombusPerimeter;whiteSpace=wrap;html=1;align=center;" vertex="1" parent="1">
          <mxGeometry x="245" y="189" width="110" height="60" as="geometry" />
        </mxCell>
        <mxCell id="9-XeD08LT8blCO0bY9Uz-116" value="" style="endArrow=none;html=1;rounded=0;entryX=0;entryY=1;entryDx=0;entryDy=0;exitX=1;exitY=0.5;exitDx=0;exitDy=0;" edge="1" parent="1" source="9-XeD08LT8blCO0bY9Uz-115" target="9-XeD08LT8blCO0bY9Uz-2">
          <mxGeometry relative="1" as="geometry">
            <mxPoint x="240" y="250" as="sourcePoint" />
            <mxPoint x="400" y="250" as="targetPoint" />
          </mxGeometry>
        </mxCell>
        <mxCell id="9-XeD08LT8blCO0bY9Uz-117" value="" style="endArrow=none;html=1;rounded=0;exitX=1;exitY=0.5;exitDx=0;exitDy=0;entryX=0;entryY=0.5;entryDx=0;entryDy=0;" edge="1" parent="1" source="9-XeD08LT8blCO0bY9Uz-91" target="9-XeD08LT8blCO0bY9Uz-115">
          <mxGeometry relative="1" as="geometry">
            <mxPoint x="240" y="250" as="sourcePoint" />
            <mxPoint x="400" y="250" as="targetPoint" />
          </mxGeometry>
        </mxCell>
        <mxCell id="9-XeD08LT8blCO0bY9Uz-118" value="Xem nhà" style="shape=rhombus;perimeter=rhombusPerimeter;whiteSpace=wrap;html=1;align=center;" vertex="1" parent="1">
          <mxGeometry x="270" y="304" width="110" height="50" as="geometry" />
        </mxCell>
        <mxCell id="9-XeD08LT8blCO0bY9Uz-119" value="(1,n)" style="endArrow=none;html=1;rounded=0;exitX=1;exitY=0.75;exitDx=0;exitDy=0;entryX=0;entryY=0.5;entryDx=0;entryDy=0;" edge="1" parent="1" source="9-XeD08LT8blCO0bY9Uz-91" target="9-XeD08LT8blCO0bY9Uz-118">
          <mxGeometry relative="1" as="geometry">
            <mxPoint x="270" y="310" as="sourcePoint" />
            <mxPoint x="430" y="310" as="targetPoint" />
          </mxGeometry>
        </mxCell>
        <mxCell id="9-XeD08LT8blCO0bY9Uz-120" value="(1,n)" style="endArrow=none;html=1;rounded=0;entryX=0;entryY=0.75;entryDx=0;entryDy=0;exitX=1;exitY=0.5;exitDx=0;exitDy=0;" edge="1" parent="1" source="9-XeD08LT8blCO0bY9Uz-118" target="9-XeD08LT8blCO0bY9Uz-39">
          <mxGeometry relative="1" as="geometry">
            <mxPoint x="270" y="310" as="sourcePoint" />
            <mxPoint x="430" y="310" as="targetPoint" />
          </mxGeometry>
        </mxCell>
        <mxCell id="9-XeD08LT8blCO0bY9Uz-122" value="Ngày xem nhà" style="ellipse;whiteSpace=wrap;html=1;align=center;" vertex="1" parent="1">
          <mxGeometry x="220" y="260" width="80" height="40" as="geometry" />
        </mxCell>
        <mxCell id="9-XeD08LT8blCO0bY9Uz-123" value="Nhận xét" style="ellipse;whiteSpace=wrap;html=1;align=center;" vertex="1" parent="1">
          <mxGeometry x="340" y="260" width="70" height="40" as="geometry" />
        </mxCell>
        <mxCell id="9-XeD08LT8blCO0bY9Uz-124" value="" style="endArrow=none;html=1;rounded=0;exitX=0.5;exitY=1;exitDx=0;exitDy=0;entryX=0;entryY=0;entryDx=0;entryDy=0;" edge="1" parent="1" source="9-XeD08LT8blCO0bY9Uz-122" target="9-XeD08LT8blCO0bY9Uz-118">
          <mxGeometry relative="1" as="geometry">
            <mxPoint x="230" y="304" as="sourcePoint" />
            <mxPoint x="430" y="294" as="targetPoint" />
          </mxGeometry>
        </mxCell>
        <mxCell id="9-XeD08LT8blCO0bY9Uz-125" value="" style="endArrow=none;html=1;rounded=0;exitX=1;exitY=0;exitDx=0;exitDy=0;entryX=0.5;entryY=1;entryDx=0;entryDy=0;" edge="1" parent="1" source="9-XeD08LT8blCO0bY9Uz-118" target="9-XeD08LT8blCO0bY9Uz-123">
          <mxGeometry relative="1" as="geometry">
            <mxPoint x="300" y="290" as="sourcePoint" />
            <mxPoint x="460" y="290" as="targetPoint" />
          </mxGeometry>
        </mxCell>
      </root>
    </mxGraphModel>
  </diagram>
</mxfile>
